<?xml version="1.0" standalone="no"?>
<!DOCTYPE svg PUBLIC "-//W3C//DTD SVG 20010904//EN"
 "http://www.w3.org/TR/2001/REC-SVG-20010904/DTD/svg10.dtd">
<svg version="1.0" xmlns="http://www.w3.org/2000/svg"
 width="300.000000pt" height="301.000000pt" viewBox="0 0 300.000000 301.000000"
 preserveAspectRatio="xMidYMid meet">
<metadata>
Created by potrace 1.10, written by Peter Selinger 2001-2011
</metadata>
<g transform="translate(0.000000,301.000000) scale(0.100000,-0.100000)"
fill="#000000" stroke="none">
<path d="M994 2953 c-9 -32 -21 -78 -28 -103 -12 -42 -17 -46 -62 -61 l-49
-17 -80 78 -80 77 -121 -71 -121 -71 28 -104 28 -104 -38 -39 -39 -38 -104 28
-103 28 -71 -122 -71 -122 77 -77 77 -76 -15 -54 c-12 -44 -20 -55 -41 -60
-142 -34 -181 -48 -181 -66 0 -10 6 -19 14 -19 21 0 26 -23 26 -112 0 -72 -2
-80 -21 -85 -13 -4 -19 -12 -17 -26 3 -18 19 -25 104 -46 l102 -24 16 -56 16
-56 -78 -76 -79 -76 68 -114 c38 -63 69 -117 71 -121 2 -4 48 6 103 22 l100
29 42 -42 43 -42 -29 -102 -28 -102 121 -70 121 -70 77 76 76 76 54 -15 c51
-14 53 -16 66 -64 8 -27 20 -73 29 -101 l14 -53 139 0 139 0 14 52 c9 29 21
75 29 102 13 48 15 50 66 64 l54 15 76 -76 77 -75 121 70 121 71 -19 59 c-26
87 -22 91 18 20 l36 -64 -31 -67 c-17 -37 -31 -73 -31 -79 0 -6 -19 -16 -42
-22 -24 -6 -59 -15 -78 -20 l-35 -9 1 -83 2 -83 75 -18 c66 -17 76 -22 82 -45
4 -15 18 -50 32 -79 l25 -53 -40 -69 -40 -69 58 -57 58 -57 67 40 67 40 64
-29 c35 -16 70 -29 78 -29 9 0 20 -17 26 -42 6 -24 16 -60 22 -81 l11 -38 81
3 81 3 20 74 20 73 65 25 c36 13 69 28 74 33 5 5 38 -7 80 -30 l72 -40 58 59
57 58 -40 69 c-26 44 -37 72 -31 80 5 6 20 40 34 75 l24 64 73 21 74 21 3 81
3 81 -58 16 c-81 22 -103 33 -103 47 0 7 -13 41 -29 74 l-29 61 40 68 39 69
-58 57 -58 58 -67 -40 -67 -40 -43 22 c-23 12 -58 27 -77 34 -34 11 -37 17
-56 86 l-20 74 -81 3 -81 3 -23 -79 c-22 -79 -23 -80 -64 -92 -22 -6 -57 -21
-77 -32 l-35 -20 -62 37 c-74 43 -88 41 -139 -21 -21 -24 -41 -44 -45 -44 -4
0 -10 11 -14 24 -4 19 3 32 37 64 l43 40 80 -23 c45 -12 90 -25 101 -28 17 -6
30 10 89 114 l69 121 -76 77 -75 76 17 54 16 54 100 27 100 27 3 141 3 141
-35 9 c-19 6 -66 18 -103 28 l-69 17 -15 53 -16 53 74 73 c40 40 73 77 73 83
0 5 -31 62 -68 125 l-67 116 -104 -29 -105 -28 -38 39 -39 38 28 105 29 104
-122 71 -122 71 -77 -77 -76 -77 -53 15 c-52 14 -53 15 -65 65 -27 118 -42
157 -61 157 -10 0 -20 -9 -23 -20 -5 -18 -14 -20 -97 -20 -83 0 -92 2 -97 20
-3 11 -14 20 -24 20 -14 0 -22 -14 -35 -57z m291 -35 c2 -7 14 -51 27 -97 l23
-84 48 -12 48 -12 66 68 c36 38 70 69 75 69 7 0 211 -113 226 -125 1 -1 -9
-46 -24 -100 l-27 -97 36 -36 36 -36 98 27 c53 14 98 25 98 24 1 -1 29 -50 63
-109 34 -58 62 -110 62 -114 0 -5 -31 -40 -69 -79 l-68 -70 14 -47 c13 -44 18
-48 56 -59 23 -6 66 -17 95 -25 l52 -15 0 -135 c0 -101 -3 -134 -12 -134 -7 0
-50 -10 -95 -22 l-83 -23 -15 -50 -14 -50 71 -72 71 -71 -63 -109 c-35 -59
-64 -109 -65 -111 -1 -1 -45 9 -98 24 l-95 26 -36 -36 c-20 -19 -36 -41 -36
-48 0 -7 12 -51 25 -97 14 -47 24 -85 22 -87 -1 -1 -52 -31 -114 -67 l-111
-65 -70 71 -69 72 -49 -14 c-27 -7 -50 -15 -52 -16 -2 -2 -10 -29 -18 -62 -9
-32 -20 -75 -25 -95 l-10 -38 -129 0 -129 0 -10 38 c-5 20 -16 63 -25 95 -8
33 -16 60 -18 62 -2 1 -25 9 -52 16 l-49 14 -69 -72 -70 -71 -111 65 c-62 36
-113 66 -114 67 -2 2 8 40 22 87 13 46 25 90 25 97 0 7 -16 29 -36 49 l-36 36
-95 -27 c-53 -15 -97 -25 -98 -24 -9 12 -125 216 -125 220 0 3 31 37 70 74
l70 69 -16 52 -15 51 -78 21 c-42 12 -85 21 -94 21 -15 0 -17 15 -17 135 l0
134 43 11 c150 40 145 37 160 91 l15 49 -69 67 c-38 36 -69 70 -69 75 0 8 29
60 125 225 1 1 45 -9 99 -24 l97 -26 37 36 36 36 -27 97 c-15 53 -26 98 -25
99 14 11 219 125 225 125 5 0 39 -31 76 -68 l68 -69 47 12 47 12 23 84 c13 46
25 90 27 97 3 9 39 12 135 12 96 0 132 -3 135 -12z m1141 -1699 l19 -71 50
-17 c28 -10 60 -24 72 -32 24 -14 24 -14 119 42 l30 18 53 -53 53 -54 -36 -61
-36 -62 19 -37 c10 -20 24 -54 30 -74 13 -39 25 -45 119 -64 l32 -6 0 -78 0
-78 -70 -17 c-66 -16 -70 -19 -81 -53 -6 -21 -20 -54 -31 -75 l-19 -39 36 -60
36 -61 -48 -52 c-26 -29 -51 -53 -55 -54 -4 -1 -33 15 -66 35 l-60 35 -39 -19
c-21 -11 -54 -25 -75 -31 -34 -11 -37 -15 -53 -82 l-17 -70 -76 3 -76 3 -16
60 c-18 72 -26 85 -49 85 -9 0 -40 12 -69 26 l-52 26 -61 -37 -61 -38 -53 53
-53 52 36 61 c32 56 34 63 22 91 -7 17 -20 52 -29 78 l-16 47 -73 18 -73 17 3
75 3 75 35 9 c104 25 110 28 110 46 0 10 13 43 28 74 l28 56 -37 63 -38 63 53
53 52 53 59 -36 c32 -19 62 -35 66 -35 4 0 31 11 61 25 29 14 60 25 69 25 12
0 21 19 33 63 10 34 19 68 21 75 3 8 28 12 78 12 l74 0 19 -71z"/>
<path d="M1055 2256 c-167 -40 -298 -193 -312 -363 -14 -171 77 -327 236 -406
61 -30 73 -32 171 -32 99 0 109 2 173 33 259 128 316 468 112 661 -108 102
-243 140 -380 107z m209 -92 c58 -20 147 -100 175 -157 63 -131 40 -278 -59
-377 -130 -130 -336 -127 -466 6 -80 82 -107 218 -69 336 23 68 119 167 185
191 60 21 174 21 234 1z"/>
<path d="M2222 884 c-147 -73 -179 -265 -64 -384 119 -122 315 -92 393 61 29
58 33 109 14 175 -42 146 -205 217 -343 148z m186 -29 c75 -32 121 -102 122
-187 0 -60 -13 -95 -53 -137 -100 -105 -276 -73 -332 61 -23 56 -19 108 13
169 47 91 157 132 250 94z"/>
</g>
</svg>
